<svg id="Layer_1" data-name="Layer 1" xmlns="http://www.w3.org/2000/svg" viewBox="0 0 237.81 74.32"><path d="M42.79,7.91H28.87L1.57,77.82h13l6.16-17.31H50.33l6.26,17.31h13ZM24.89,49.75,35.16,21.47,46.22,49.75Z" transform="translate(-1.57 -5.62)"/><path d="M126.83,33.41a20.47,20.47,0,0,0-28.76,2.2V6.12H86.91v71.7H97.67V72.93c.89.88,9,8.68,19.47,6.69a21.05,21.05,0,0,0,12.43-8C138,61,137.3,42,126.83,33.41Zm-8.35,33.72a12.92,12.92,0,0,1-10.31,2,12.69,12.69,0,0,1-6.52-4.14c-5.29-6.22-5.23-18.51,1.6-23.55a13.42,13.42,0,0,1,10.6-2.18,13.18,13.18,0,0,1,6.4,3.52C126.09,48.76,125.65,62.06,118.48,67.13Z" transform="translate(-1.57 -5.62)"/><path d="M230.86,33.41a21.07,21.07,0,0,0-15.26-4.79,21.33,21.33,0,0,0-13.5,7V6.12H191v71.7h10.76V72.93c.88.88,9,8.68,19.46,6.69a21,21,0,0,0,12.43-8C242,61,241.34,42,230.86,33.41Zm-8.35,33.72a12.9,12.9,0,0,1-10.3,2,12.69,12.69,0,0,1-6.53-4.14c-5.29-6.22-5.23-18.51,1.61-23.55a13.41,13.41,0,0,1,10.6-2.18,13.16,13.16,0,0,1,6.39,3.52C230.12,48.76,229.69,62.06,222.51,67.13Z" transform="translate(-1.57 -5.62)"/><path d="M155.78,30c.15-.09,11.69,0,11.69,0V78.41H155.78Z" transform="translate(-1.57 -5.62)"/><path d="M160.48,5.69a7.42,7.42,0,0,0-4.83,2.68c-2.48,3.24-.78,7.34-.65,7.64a7,7,0,0,0,2.29,3c2.69,1.95,7.64,2.2,10.43-1.18a7.63,7.63,0,0,0,.13-9.39C165.23,5.06,160.81,5.64,160.48,5.69Z" transform="translate(-1.57 -5.62)"/></svg>